# xmcd
#
# Track frame offsets:
#	225
#	14332
#	27362
#	49517
#	68400
#	87365
#	119110
#	133080
#	151677
#	173530
#	192710
#	211320
#	234312
#	247410
#	268907
#	289075
#	303380
#
# Disc length: 4321 seconds
#
# Revision: 1
# Processed by: cddbd v1.5.2PL0 Copyright (c) Steve Scherf et al.
# Submitted via: audiograbber 1.83.01
#
DISCID=f510de11
DTITLE=Maria Petrova - Nezabrava
DYEAR=1900
DGENRE=
TTITLE0=Zashto mulchish
TTITLE1=V onaia tiha maiska vecher
TTITLE2=Pred kaminata
TTITLE3=Ne chakai ti dusha liubima
TTITLE4=Tiha vecher
TTITLE5=Gurbetchia
TTITLE6=Spomen moi
TTITLE7=Samotna tzurkvitza
TTITLE8=Ia kazhi mi oblache le bialo
TTITLE9=Roden krai
TTITLE10=Idi si esen
TTITLE11=Nezabrava
TTITLE12=Zvuni se
TTITLE13=Cherna muka
TTITLE14=Chui az placha
TTITLE15=Moia lik pazi za spomen
TTITLE16=Surdechen pozdrav
EXTD=
EXTT0=
EXTT1=
EXTT2=
EXTT3=
EXTT4=
EXTT5=
EXTT6=
EXTT7=
EXTT8=
EXTT9=
EXTT10=
EXTT11=
EXTT12=
EXTT13=
EXTT14=
EXTT15=
EXTT16=
PLAYORDER=
